<svg width="20" height="20" viewBox="0 0 20 20" fill="none" xmlns="http://www.w3.org/2000/svg">
<path d="M15.9383 8.21762C15.9383 9.92069 15.3853 11.4939 14.4538 12.7703L19.1521 17.4713C19.616 17.9351 19.616 18.6884 19.1521 19.1522C18.6882 19.6159 17.9348 19.6159 17.4709 19.1522L12.7727 14.4511C11.496 15.3861 9.92253 15.9352 8.21913 15.9352C3.95505 15.9352 0.5 12.4809 0.5 8.21762C0.5 3.95438 3.95505 0.5 8.21913 0.5C12.4832 0.5 15.9383 3.95438 15.9383 8.21762ZM8.21913 13.5606C8.92091 13.5606 9.61583 13.4224 10.2642 13.1539C10.9126 12.8854 11.5017 12.4918 11.9979 11.9957C12.4941 11.4995 12.8878 10.9105 13.1563 10.2623C13.4249 9.61405 13.5631 8.91927 13.5631 8.21762C13.5631 7.51597 13.4249 6.82119 13.1563 6.17295C12.8878 5.52472 12.4941 4.93571 11.9979 4.43957C11.5017 3.94343 10.9126 3.54987 10.2642 3.28136C9.61583 3.01285 8.92091 2.87465 8.21913 2.87465C7.51734 2.87465 6.82243 3.01285 6.17406 3.28136C5.5257 3.54987 4.93658 3.94343 4.44034 4.43957C3.9441 4.93571 3.55047 5.52472 3.2819 6.17295C3.01334 6.82119 2.87512 7.51597 2.87512 8.21762C2.87512 8.91927 3.01334 9.61405 3.2819 10.2623C3.55047 10.9105 3.9441 11.4995 4.44034 11.9957C4.93658 12.4918 5.5257 12.8854 6.17406 13.1539C6.82243 13.4224 7.51734 13.5606 8.21913 13.5606Z" fill="#CACACA"/>
</svg>
