<svg width="24" height="28" viewBox="0 0 24 28" fill="none" xmlns="http://www.w3.org/2000/svg">
<path d="M0.666992 7.46746H23.3337V22.7077C23.3303 25.4451 21.0942 27.6634 18.335 27.6667H5.66595C2.90646 27.6633 0.670357 25.4451 0.666992 22.708V22.7077V7.46746ZM20.9701 9.81216H3.0306V22.7077C3.03259 24.1508 4.21129 25.32 5.66576 25.322H18.3347C19.7894 25.32 20.9681 24.1507 20.9701 22.7079V22.7077V9.81216ZM17.6965 11.9926H15.3329V6.4006C15.3329 4.57479 13.8409 3.09464 12.0003 3.09464C10.1597 3.09464 8.66765 4.57479 8.66765 6.4006V11.9926H7.4859H6.30415V6.4006C6.30415 3.27988 8.85443 0.75 12.0004 0.75C15.1463 0.75 17.6966 3.27988 17.6966 6.40065L17.6965 11.9926Z" fill="#CACACA"/>
</svg>
