<svg width="24" height="28" viewBox="0 0 24 28" fill="none" xmlns="http://www.w3.org/2000/svg">
<path d="M0.666016 7.46746H23.3327V22.7077C23.3293 25.4451 21.0932 27.6634 18.334 27.6667H5.66497C2.90548 27.6633 0.669381 25.4451 0.666016 22.708V7.46746ZM20.9691 9.81216H17.6956H15.3319H8.66667H6.30317H3.02962V22.7077C3.03161 24.1508 4.21032 25.32 5.66478 25.322H18.3337C19.7884 25.32 20.9671 24.1507 20.9691 22.7079V9.81216ZM17.6956 11.9926H15.3319V9.81216V6.4006C15.3319 4.57479 13.8399 3.09464 11.9993 3.09464C10.1587 3.09464 8.66667 4.57479 8.66667 6.4006V9.81216V11.9926H7.48492H6.30317V9.81216V6.4006C6.30317 3.27988 8.85346 0.75 11.9994 0.75C15.1454 0.75 17.6956 3.27987 17.6956 6.40065L17.6956 9.81216L17.6956 11.9926Z" fill="#E6FA4D"/>
<path d="M20.9691 9.81216H17.6956L17.6956 11.9926H15.3319V9.81216H8.66667V11.9926H7.48492H6.30317V9.81216H3.02962V22.7077C3.03161 24.1508 4.21032 25.32 5.66478 25.322H18.3337C19.7884 25.32 20.9671 24.1507 20.9691 22.7079V9.81216Z" fill="#E6FA4D"/>
</svg>
