<svg width="31" height="25" viewBox="0 0 31 25" fill="none" xmlns="http://www.w3.org/2000/svg">
<path d="M13.5372 23.5944L13.3919 23.4678L3.21187 14.507C1.42803 12.9373 0.416992 10.7343 0.416992 8.42664V8.24489C0.416992 4.36757 3.32227 1.04101 7.34316 0.314015C9.63252 -0.104559 11.9742 0.396628 13.8394 1.64133C14.3623 1.99382 14.8504 2.40138 15.292 2.86952C15.536 2.60516 15.7975 2.36282 16.0764 2.13701C16.2914 1.96077 16.5122 1.79555 16.7446 1.64133C18.6098 0.396628 20.9515 -0.104559 23.2408 0.308507C27.2617 1.0355 30.167 4.36757 30.167 8.24489V8.42664C30.167 10.7343 29.156 12.9373 27.3721 14.507L17.192 23.4678L17.0468 23.5944C16.5703 24.013 15.9428 24.2498 15.292 24.2498C14.6412 24.2498 14.0137 24.0185 13.5372 23.5944ZM14.31 5.79403C14.2868 5.77751 14.2693 5.75548 14.2519 5.73345L13.2176 4.63194L13.2118 4.62643C11.8696 3.19997 9.8417 2.55008 7.86611 2.90807C5.1584 3.39824 3.20605 5.63431 3.20605 8.24489V8.42664C3.20605 9.99629 3.89751 11.4999 5.11191 12.5683L15.292 21.5291L25.4721 12.5683C26.6865 11.4999 27.3779 9.99629 27.3779 8.42664V8.24489C27.3779 5.63982 25.4256 3.39824 22.7237 2.90807C20.7481 2.55008 18.7144 3.20548 17.378 4.62643C17.378 4.62643 17.378 4.62643 17.3722 4.63194C17.3664 4.63744 17.3722 4.63194 17.3664 4.63744L16.3321 5.73895C16.3146 5.76098 16.2914 5.77751 16.274 5.79954C16.0125 6.04738 15.6581 6.18507 15.292 6.18507C14.9259 6.18507 14.5715 6.04738 14.31 5.79954V5.79403Z" fill="#CACACA"/>
</svg>
