<svg width="25" height="28" viewBox="0 0 25 28" fill="none" xmlns="http://www.w3.org/2000/svg">
<path d="M17.0083 7.47917C17.0083 6.36374 16.5552 5.29399 15.7487 4.50527C14.9421 3.71654 13.8483 3.27344 12.7077 3.27344C11.5671 3.27344 10.4732 3.71654 9.6667 4.50527C8.86018 5.29399 8.40709 6.36374 8.40709 7.47917C8.40709 8.59459 8.86018 9.66434 9.6667 10.4531C10.4732 11.2418 11.5671 11.6849 12.7077 11.6849C13.8483 11.6849 14.9421 11.2418 15.7487 10.4531C16.5552 9.66434 17.0083 8.59459 17.0083 7.47917ZM5.82673 7.47917C5.82673 5.69448 6.55169 3.98289 7.84211 2.72093C9.13254 1.45896 10.8827 0.75 12.7077 0.75C14.5326 0.75 16.2828 1.45896 17.5733 2.72093C18.8637 3.98289 19.5886 5.69448 19.5886 7.47917C19.5886 9.26385 18.8637 10.9754 17.5733 12.2374C16.2828 13.4994 14.5326 14.2083 12.7077 14.2083C10.8827 14.2083 9.13254 13.4994 7.84211 12.2374C6.55169 10.9754 5.82673 9.26385 5.82673 7.47917ZM3.31626 25.1432H22.1045C21.626 21.8154 18.7016 19.2552 15.1698 19.2552H10.2563C6.72448 19.2552 3.80007 21.8154 3.32163 25.1432H3.31626ZM0.666016 26.1053C0.666016 20.927 4.95586 16.7318 10.251 16.7318H15.1644C20.4595 16.7318 24.7493 20.927 24.7493 26.1053C24.7493 26.9675 24.0344 27.6667 23.1528 27.6667H2.26261C1.38099 27.6667 0.666016 26.9675 0.666016 26.1053Z" fill="#E6FA4D"/>
<path d="M3.32163 25.1432H22.1045C21.626 21.8154 18.7016 19.2552 15.1698 19.2552H10.2563C6.72448 19.2552 3.80007 21.8154 3.32163 25.1432Z" fill="#E6FA4D"/>
<path d="M17.0083 7.47917C17.0083 6.36374 16.5552 5.29399 15.7487 4.50527C14.9421 3.71654 13.8483 3.27344 12.7077 3.27344C11.5671 3.27344 10.4732 3.71654 9.6667 4.50527C8.86018 5.29399 8.40709 6.36374 8.40709 7.47917C8.40709 8.59459 8.86018 9.66434 9.6667 10.4531C10.4732 11.2418 11.5671 11.6849 12.7077 11.6849C13.8483 11.6849 14.9421 11.2418 15.7487 10.4531C16.5552 9.66434 17.0083 8.59459 17.0083 7.47917Z" fill="#E6FA4D"/>
</svg>
