<svg width="25" height="28" viewBox="0 0 25 28" fill="none" xmlns="http://www.w3.org/2000/svg">
<path d="M17.0093 7.47917C17.0093 6.36374 16.5562 5.29399 15.7496 4.50527C14.9431 3.71654 13.8492 3.27344 12.7087 3.27344C11.5681 3.27344 10.4742 3.71654 9.66768 4.50527C8.86116 5.29399 8.40806 6.36374 8.40806 7.47917C8.40806 8.5946 8.86116 9.66434 9.66768 10.4531C10.4742 11.2418 11.5681 11.6849 12.7087 11.6849C13.8492 11.6849 14.9431 11.2418 15.7496 10.4531C16.5562 9.66434 17.0093 8.5946 17.0093 7.47917ZM5.82771 7.47917C5.82771 5.69448 6.55266 3.98289 7.84309 2.72093C9.13352 1.45896 10.8837 0.75 12.7087 0.75C14.5336 0.75 16.2838 1.45896 17.5742 2.72093C18.8647 3.98289 19.5896 5.69448 19.5896 7.47917C19.5896 9.26385 18.8647 10.9754 17.5742 12.2374C16.2838 13.4994 14.5336 14.2083 12.7087 14.2083C10.8837 14.2083 9.13352 13.4994 7.84309 12.2374C6.55266 10.9754 5.82771 9.26385 5.82771 7.47917ZM3.31723 25.1432H22.1055C21.627 21.8154 18.7026 19.2552 15.1707 19.2552H10.2573C6.72546 19.2552 3.80105 21.8154 3.32261 25.1432H3.31723ZM0.666992 26.1053C0.666992 20.927 4.95684 16.7318 10.2519 16.7318H15.1654C20.4605 16.7318 24.7503 20.927 24.7503 26.1053C24.7503 26.9675 24.0354 27.6667 23.1537 27.6667H2.26359C1.38197 27.6667 0.666992 26.9675 0.666992 26.1053Z" fill="#CACACA"/>
</svg>
